<svg fill="none" height="50" viewBox="0 0 50 50" width="50" xmlns="http://www.w3.org/2000/svg"
    xmlns:xlink="http://www.w3.org/1999/xlink">
    <clipPath id="a">
        <path d="m10 10h30v30h-30z" />
    </clipPath>
    <circle cx="25" cy="25" fill="#fff" r="24" stroke="#ffded4" stroke-dasharray="4 4"
        stroke-width="2" />
    <g clip-path="url(#a)" fill="#f39200">
        <path
            d="m24.2687 39.6086c.163.2445.4375.3914.7313.3914s.5683-.1468.7313-.3914c2.08-3.1199 5.1437-6.9731 7.2786-10.8919 1.7071-3.1334 2.537-5.8058 2.537-8.1698 0-5.8156-4.7314-10.5469-10.5469-10.5469s-10.5469 4.7313-10.5469 10.5469c0 2.364.8299 5.0364 2.537 8.1698 2.1333 3.9158 5.2028 7.7784 7.2786 10.8919zm.7313-27.8508c4.8463 0 8.7891 3.9428 8.7891 8.7891 0 2.0627-.7598 4.46-2.3228 7.3288-1.8402 3.3779-4.4663 6.8044-6.4663 9.685-1.9997-2.8802-4.626-6.3069-6.4663-9.685-1.563-2.8688-2.3228-5.2661-2.3228-7.3288 0-4.8463 3.9428-8.7891 8.7891-8.7891z" />
        <path
            d="m25 25.8203c2.9078 0 5.2734-2.3657 5.2734-5.2734 0-2.9078-2.3656-5.2735-5.2734-5.2735s-5.2734 2.3657-5.2734 5.2735c0 2.9077 2.3656 5.2734 5.2734 5.2734zm0-8.7891c1.9385 0 3.5156 1.5772 3.5156 3.5157s-1.5771 3.5156-3.5156 3.5156-3.5156-1.5771-3.5156-3.5156 1.5771-3.5157 3.5156-3.5157z" />
    </g>
</svg>