<svg fill="none" height="50" viewBox="0 0 50 50" width="50" xmlns="http://www.w3.org/2000/svg"
    xmlns:xlink="http://www.w3.org/1999/xlink">
    <clipPath id="a">
        <path d="m10 10h30v30h-30z" />
    </clipPath>
    <circle cx="25" cy="25" fill="#fff" r="24" stroke="#ffded4" stroke-dasharray="4 4"
        stroke-width="2" />
    <g clip-path="url(#a)" fill="#f39200">
        <path
            d="m32.808 29.8456c-.9801-.9676-2.2037-.9676-3.1775 0-.7429.7367-1.4858 1.4733-2.2162 2.2224-.1998.206-.3683.2497-.6118.1124-.4807-.2622-.9926-.4745-1.4545-.7616-2.1538-1.3547-3.9579-3.0964-5.5561-5.0566-.7928-.9739-1.4982-2.0164-1.9914-3.19-.0999-.2373-.0811-.3933.1124-.5869.7429-.7179 1.467-1.4545 2.1974-2.1912 1.0176-1.0238 1.0176-2.2224-.0062-3.2524-.5806-.5868-1.1612-1.1612-1.7417-1.748-.5993-.5993-1.1924-1.2048-1.7979-1.7979-.9801-.9551-2.2037-.9551-3.1776.0063-.7491.7366-1.467 1.492-2.2286 2.2161-.7055.668-1.0613 1.4858-1.1362 2.4409-.11862 1.5545.2622 3.0215.7991 4.4511 1.0987 2.959 2.7717 5.5872 4.8006 7.9969 2.7406 3.2587 6.0117 5.837 9.8385 7.6973 1.723.8365 3.5084 1.4795 5.4499 1.5856 1.336.0749 2.4971-.2622 3.4273-1.3047.6367-.7117 1.3546-1.3609 2.0289-2.0414.9988-1.0113 1.005-2.2349.0124-3.2337-1.1861-1.1924-2.3784-2.3785-3.5708-3.5646z" />
        <path
            d="m31.6156 24.8701 2.3036-.3933c-.3621-2.1162-1.3609-4.0328-2.8779-5.556-1.6044-1.6044-3.6332-2.6157-5.8681-2.9278l-.3247 2.316c1.7293.2435 3.3024 1.0238 4.5447 2.2661 1.1737 1.1737 1.9415 2.6594 2.2224 4.295z" />
        <path
            d="m35.2177 14.8568c-2.6594-2.6594-6.0242-4.3387-9.7386-4.8568l-.3247 2.316c3.2088.4495 6.1179 1.9041 8.4152 4.1952 2.1787 2.1787 3.6083 4.9317 4.1265 7.9594l2.3035-.3933c-.6055-3.5084-2.2598-6.6922-4.7819-9.2205z" />
    </g>
</svg>