<svg fill="none" height="50" viewBox="0 0 50 50" width="50" xmlns="http://www.w3.org/2000/svg">
    <circle cx="25" cy="25" fill="#fff" r="24" stroke="#ffded4" stroke-dasharray="4 4"
        stroke-width="2" />
    <path
        d="m37.3633 14.4531h-24.7266c-1.4568 0-2.6367 1.1873-2.6367 2.6367v15.8204c0 1.4581 1.1886 2.6367 2.6367 2.6367h24.7266c1.4446 0 2.6367-1.1737 2.6367-2.6367v-15.8204c0-1.4469-1.1752-2.6367-2.6367-2.6367zm-.3693 1.7578c-.5387.5359-9.8094 9.7578-10.1295 10.0762-.4981.4981-1.1602.7723-1.8645.7723s-1.3664-.2743-1.8661-.7739c-.2153-.2142-9.3837-9.3343-10.1279-10.0746zm-25.2362 16.3415v-15.1037l7.596 7.556zm1.2493 1.2367 7.593-7.5447 1.2925 1.2857c.83.83 1.9336 1.2871 3.1074 1.2871s2.2774-.4571 3.1058-1.2855l1.2941-1.2873 7.593 7.5447zm25.2351-1.2367-7.596-7.5477 7.596-7.556z"
        fill="#f39200" />
</svg>