<svg fill="none" height="20" viewBox="0 0 20 20" width="20" xmlns="http://www.w3.org/2000/svg" xmlns:xlink="http://www.w3.org/1999/xlink"><clipPath id="a"><path d="m0 0h20v20h-20z"/></clipPath><g clip-path="url(#a)" fill="#cfd8dc"><path d="m7.12736 6.07347 1.93512-1.93512v10.23665c0 .2487.09877.4871.27458.6629.17582.1759.41428.2746.66292.2746.24862 0 .48712-.0987.66292-.2746.1758-.1758.2746-.4142.2746-.6629v-10.23665l1.9351 1.93512c.087.08744.1903.15687.3042.2043.1138.04742.2359.07192.3592.07209.1234.00017.2455-.024.3595-.07112.114-.04711.2175-.11626.3047-.20346.0872-.08721.1564-.19077.2035-.30474s.0713-.23612.0711-.35945-.0247-.24541-.0721-.35926c-.0474-.11384-.1168-.21721-.2043-.30418l-3.5355-3.53555c-.087-.08706-.1904-.15612-.3041-.20323-.1138-.047119-.2357-.07137-.35882-.07137s-.24503.024251-.35878.07137c-.11375.04711-.2171.11617-.30415.20323l-3.53551 3.53555c-.08744.08697-.15687.19034-.2043.30418-.04742.11385-.07192.23593-.07209.35926s.024.24548.07112.35945c.04711.11397.11626.21753.20346.30474.08721.0872.19077.15635.30474.20346.11397.04712.23612.07129.35945.07112s.24541-.02467.35926-.07209c.11384-.04743.21721-.11686.30418-.2043z"/><path d="m18.125 9.0625c-.2486 0-.4871.09877-.6629.27459-.1758.17581-.2746.41427-.2746.66291v7.1875h-14.375v-7.1875c0-.24864-.09877-.4871-.27459-.66291-.17581-.17582-.41427-.27459-.66291-.27459s-.4871.09877-.66291.27459c-.17582.17581-.27459.41427-.27459.66291v7.5c0 .4144.16462.8118.45765 1.1049.29302.293.69045.4576 1.10485.4576h15c.4144 0 .8118-.1646 1.1049-.4576.293-.2931.4576-.6905.4576-1.1049v-7.5c0-.24864-.0988-.4871-.2746-.66291-.1758-.17582-.4143-.27459-.6629-.27459z"/></g></svg>